<?xml version="1.0" standalone="no"?>
<!DOCTYPE svg PUBLIC "-//W3C//DTD SVG 20010904//EN"
 "http://www.w3.org/TR/2001/REC-SVG-20010904/DTD/svg10.dtd">
<svg version="1.0" xmlns="http://www.w3.org/2000/svg"
 width="550.000000pt" height="550.000000pt" viewBox="0 0 550.000000 550.000000"
 preserveAspectRatio="xMidYMid meet">
<metadata>
Created by potrace 1.14, written by Peter Selinger 2001-2017
</metadata>
<g transform="translate(0.000000,550.000000) scale(0.100000,-0.100000)"
fill="#000000" stroke="none">
<path d="M670 5115 c0 -6 -19 -9 -45 -7 -25 2 -45 0 -45 -5 0 -5 -12 -9 -27
-10 -35 -1 -93 -24 -93 -38 0 -5 -5 -3 -10 5 -6 10 -10 11 -10 3 0 -7 -7 -13
-15 -13 -9 0 -18 -7 -21 -15 -4 -8 -10 -12 -15 -9 -5 3 -9 0 -9 -6 0 -6 -4 -8
-10 -5 -5 3 -10 -1 -10 -9 0 -9 -5 -16 -10 -16 -15 0 -54 -40 -63 -64 -4 -10
-10 -16 -14 -12 -3 3 -13 -4 -22 -17 -16 -23 -18 -26 -20 -53 0 -9 -6 -12 -13
-8 -6 4 -8 3 -5 -3 3 -5 0 -21 -8 -36 -8 -15 -11 -27 -8 -27 3 0 0 -6 -6 -14
-6 -7 -9 -20 -5 -29 3 -8 0 -18 -5 -22 -6 -3 -9 -11 -6 -16 4 -5 0 -9 -7 -9
-8 0 -9 -3 -3 -8 6 -4 10 -20 10 -37 0 -16 -4 -33 -10 -37 -7 -5 -7 -8 0 -8
11 0 12 -71 1 -88 -3 -6 0 -13 6 -15 10 -4 10 -6 0 -6 -10 -1 -10 -6 -2 -21 8
-15 8 -20 -2 -20 -9 0 -9 -3 2 -10 11 -7 11 -10 2 -10 -7 0 -10 -5 -7 -11 10
-16 13 -59 4 -59 -4 0 -4 -13 1 -30 5 -17 5 -32 0 -35 -5 -3 -7 -11 -5 -18 12
-33 13 -67 2 -67 -8 0 -8 -3 -2 -8 6 -4 10 -20 10 -37 0 -16 -4 -33 -10 -37
-7 -5 -7 -8 0 -8 6 0 10 -30 10 -70 0 -40 -4 -70 -10 -70 -5 0 -3 -5 5 -10 9
-6 10 -10 3 -10 -8 0 -9 -9 -3 -30 5 -17 5 -32 0 -35 -5 -3 -7 -11 -5 -18 11
-29 12 -77 1 -77 -6 0 -5 -4 3 -9 9 -6 10 -11 2 -15 -8 -5 -8 -13 -1 -27 8
-14 7 -19 -2 -19 -8 0 -9 -3 -3 -8 6 -4 10 -20 10 -37 0 -16 -4 -33 -10 -37
-7 -5 -7 -8 0 -8 11 0 12 -71 1 -88 -3 -6 0 -13 6 -15 10 -4 10 -6 0 -6 -10
-1 -10 -6 -2 -21 8 -15 8 -20 -2 -20 -9 0 -9 -3 2 -10 11 -7 11 -10 2 -10 -7
0 -10 -5 -7 -11 10 -16 13 -59 4 -59 -4 0 -4 -13 1 -30 5 -17 5 -32 0 -35 -5
-3 -7 -11 -5 -18 12 -33 13 -67 2 -67 -8 0 -8 -3 -2 -8 6 -4 10 -20 10 -37 0
-16 -4 -33 -10 -37 -7 -5 -7 -8 0 -8 6 0 10 -30 10 -70 0 -40 -4 -70 -10 -70
-5 0 -3 -5 5 -10 9 -6 10 -10 3 -10 -8 0 -9 -9 -3 -30 5 -17 5 -32 0 -35 -5
-3 -7 -11 -5 -18 11 -29 12 -77 1 -77 -6 0 -5 -4 3 -9 9 -6 10 -11 2 -15 -8
-5 -8 -13 -1 -27 8 -14 7 -19 -2 -19 -8 0 -9 -3 -3 -8 6 -4 10 -20 10 -37 0
-16 -4 -33 -10 -37 -7 -5 -7 -8 0 -8 11 0 12 -71 1 -88 -3 -6 0 -13 6 -15 10
-4 10 -6 0 -6 -10 -1 -10 -6 -2 -21 8 -15 8 -20 -2 -20 -9 0 -9 -3 2 -10 11
-7 11 -10 2 -10 -7 0 -10 -5 -7 -11 10 -16 13 -59 4 -59 -4 0 -4 -13 1 -30 5
-17 5 -32 0 -35 -5 -3 -7 -11 -5 -18 12 -33 13 -67 2 -67 -8 0 -8 -3 -2 -8 6
-4 10 -20 10 -37 0 -16 -4 -33 -10 -37 -7 -5 -7 -8 0 -8 6 0 10 -30 10 -70 0
-40 -4 -70 -10 -70 -5 0 -3 -5 5 -10 9 -6 10 -10 3 -10 -8 0 -9 -9 -3 -30 5
-17 5 -32 0 -35 -5 -3 -7 -11 -5 -18 11 -29 12 -77 1 -77 -6 0 -5 -4 3 -9 9
-6 10 -11 2 -15 -8 -5 -8 -13 -1 -27 8 -14 7 -19 -2 -19 -8 0 -9 -3 -3 -8 6
-4 10 -20 10 -37 0 -16 -4 -33 -10 -37 -7 -5 -7 -8 0 -8 11 0 12 -71 1 -88 -3
-6 0 -13 6 -15 10 -4 10 -6 0 -6 -10 -1 -10 -6 -2 -21 8 -15 8 -20 -2 -20 -9
0 -9 -3 2 -10 11 -7 11 -10 2 -10 -7 0 -10 -5 -7 -11 10 -16 13 -59 4 -59 -4
0 -4 -13 1 -30 5 -17 5 -32 0 -35 -5 -3 -7 -11 -5 -18 12 -33 13 -67 2 -67 -8
0 -8 -3 -2 -8 6 -4 10 -20 10 -37 0 -16 -4 -33 -10 -37 -7 -5 -7 -8 0 -8 6 0
10 -30 10 -70 0 -40 -4 -70 -10 -70 -5 0 -3 -5 5 -10 9 -6 10 -10 3 -10 -8 0
-9 -9 -3 -30 5 -17 5 -32 0 -35 -5 -3 -7 -11 -5 -18 11 -29 12 -77 1 -77 -6 0
-5 -4 3 -9 7 -5 9 -11 4 -14 -13 -8 11 -166 25 -177 5 -3 14 -24 22 -47 7 -24
16 -43 19 -43 3 0 12 -13 19 -30 7 -16 22 -32 32 -35 12 -4 17 -12 13 -22 -4
-11 -2 -14 5 -9 7 4 12 3 12 -3 0 -6 12 -14 26 -17 17 -4 22 -9 14 -14 -8 -5
-1 -12 19 -21 17 -8 31 -18 31 -22 0 -5 5 -5 10 -2 6 3 10 1 10 -5 0 -7 7 -9
16 -6 8 3 12 2 9 -4 -3 -6 0 -10 7 -10 7 0 25 -6 40 -14 20 -10 29 -11 39 -2
9 8 10 8 5 -2 -5 -8 1 -12 18 -12 37 0 40 -1 54 -12 8 -7 12 -7 12 1 0 8 6 9
18 2 11 -6 24 -6 35 0 12 7 17 6 17 -2 0 -8 4 -9 13 0 10 8 17 7 25 -1 9 -9
12 -9 12 0 0 9 5 10 18 3 11 -6 24 -6 35 0 12 7 17 6 17 -2 0 -8 4 -9 13 0 10
8 17 7 25 -1 9 -9 12 -9 12 0 0 9 5 10 17 3 11 -6 24 -6 35 0 12 7 18 6 18 -2
0 -8 4 -9 13 0 10 8 17 7 25 -1 9 -9 12 -9 12 0 0 9 5 10 18 3 11 -6 24 -6 35
0 12 7 17 6 17 -2 0 -8 4 -9 13 0 10 8 17 7 25 -1 9 -9 12 -9 12 0 0 9 5 10
18 3 11 -6 24 -6 35 0 12 7 17 6 17 -2 0 -8 4 -9 13 0 10 8 17 7 25 -1 9 -9
12 -9 12 0 0 9 5 10 18 3 11 -6 24 -6 35 0 12 7 17 6 17 -3 0 -9 3 -9 12 0 8
8 15 9 25 1 9 -9 13 -8 13 0 0 8 6 9 18 2 11 -6 24 -6 35 0 12 7 17 6 17 -2 0
-8 4 -9 13 0 10 8 17 7 25 -1 9 -9 12 -9 12 0 0 9 5 10 18 3 11 -6 24 -6 35 0
12 7 17 6 17 -2 0 -8 4 -9 13 0 10 8 17 7 25 -1 9 -9 12 -9 12 0 0 9 5 10 18
3 11 -6 24 -6 35 0 12 7 17 6 17 -2 0 -8 4 -9 13 0 10 8 17 7 25 -1 9 -9 12
-9 12 0 0 9 5 10 18 3 11 -6 24 -6 35 0 12 7 17 6 17 -2 0 -8 4 -9 13 0 10 8
17 7 25 -1 9 -9 12 -9 12 0 0 9 5 10 18 3 11 -6 24 -6 35 0 12 7 17 6 17 -2 0
-8 4 -9 13 0 10 8 17 7 25 -1 9 -9 12 -9 12 0 0 9 5 10 18 3 11 -6 24 -6 35 0
12 7 17 6 17 -3 0 -9 3 -9 12 0 8 8 15 9 25 1 9 -9 13 -8 13 0 0 8 6 9 18 2
11 -6 24 -6 35 0 12 7 17 6 17 -2 0 -8 4 -9 13 0 10 8 17 7 25 -1 9 -9 12 -9
12 0 0 9 5 10 18 3 11 -6 24 -6 35 0 12 7 17 6 17 -2 0 -8 4 -9 13 0 10 8 17
7 25 -1 9 -9 12 -9 12 0 0 9 5 10 18 3 11 -6 24 -6 35 0 12 7 17 6 17 -2 0 -8
4 -9 13 0 10 8 17 7 25 -1 9 -9 12 -9 12 0 0 9 5 10 18 3 11 -6 24 -6 35 0 12
7 17 6 17 -2 0 -8 4 -9 13 0 10 8 17 7 25 -1 9 -9 12 -9 12 0 0 9 5 10 18 3
11 -6 24 -6 35 0 12 7 17 6 17 -2 0 -8 4 -9 13 0 10 8 17 7 25 -1 9 -9 12 -9
12 0 0 9 5 10 18 3 11 -6 24 -6 35 0 12 7 17 6 17 -2 0 -8 4 -9 13 0 10 8 17
7 25 -1 9 -9 12 -9 12 0 0 9 5 10 18 3 11 -6 24 -6 35 0 12 7 17 6 17 -2 0 -8
4 -9 13 0 10 8 17 7 25 -1 9 -9 12 -9 12 0 0 9 5 10 18 3 11 -6 24 -6 35 0 12
7 17 6 17 -2 0 -8 4 -9 13 0 10 8 17 7 25 -1 9 -9 12 -9 12 0 0 9 5 10 18 3
11 -6 24 -6 35 0 12 7 17 6 17 -2 0 -8 4 -9 13 0 10 8 17 7 25 -1 9 -9 12 -9
12 0 0 9 5 10 18 3 11 -6 24 -6 35 0 12 7 17 6 17 -3 0 -9 3 -9 12 0 8 8 15 9
25 1 9 -9 13 -8 13 0 0 8 6 9 18 2 11 -6 24 -6 35 0 12 7 17 6 17 -2 0 -8 4
-9 13 0 10 8 17 7 25 -1 9 -9 12 -9 12 0 0 9 5 10 18 3 11 -6 24 -6 35 0 12 7
17 6 17 -2 0 -8 4 -9 13 0 10 8 17 7 25 -1 9 -9 12 -9 12 0 0 9 5 10 18 3 11
-6 24 -6 35 0 12 7 17 6 17 -2 0 -8 4 -9 13 0 10 8 17 7 25 -1 9 -9 12 -9 12
0 0 9 5 10 18 3 11 -6 24 -6 35 0 12 7 17 6 17 -2 0 -8 4 -9 13 0 10 8 17 7
25 -1 9 -9 12 -9 12 0 0 9 5 10 18 3 11 -6 24 -6 35 0 12 7 17 6 17 -2 0 -8 4
-9 13 0 10 8 17 7 25 -1 9 -9 12 -9 12 0 0 9 5 10 18 3 11 -6 24 -6 35 0 12 7
17 6 17 -2 0 -8 4 -9 13 0 10 8 17 7 25 -1 9 -9 12 -9 12 0 0 9 5 10 18 3 11
-6 24 -6 35 0 12 7 17 6 17 -2 0 -8 4 -9 13 0 10 8 17 7 25 -1 9 -9 12 -9 12
0 0 9 5 10 18 3 11 -6 24 -6 35 0 12 7 17 6 17 -2 0 -8 4 -9 13 0 10 8 17 7
25 -1 9 -9 12 -9 12 0 0 9 5 10 18 3 11 -6 24 -6 35 0 12 7 17 6 17 -2 0 -8 4
-9 13 0 10 8 17 7 25 -1 9 -9 12 -9 12 0 0 9 5 10 18 3 11 -6 24 -6 35 0 12 7
17 6 17 -2 0 -8 4 -9 13 0 10 8 17 7 25 -1 9 -9 12 -9 12 0 0 9 5 10 18 3 11
-6 24 -6 35 0 12 7 17 6 17 -2 0 -8 4 -9 13 0 10 8 17 7 25 -1 9 -9 12 -9 12
0 0 9 5 10 18 3 11 -6 24 -6 35 0 12 7 17 6 17 -2 0 -8 4 -9 13 0 10 8 17 7
25 -1 9 -9 12 -9 12 0 0 9 5 10 18 3 11 -6 24 -6 35 0 12 7 17 6 17 -2 0 -8 4
-9 13 0 10 8 17 7 25 -1 9 -9 12 -9 12 0 0 9 5 10 17 3 10 -5 26 -5 39 -1 12
5 25 6 28 3 3 -4 6 -2 6 4 0 6 12 8 26 5 20 -4 25 -2 19 8 -5 9 -4 11 3 6 7
-4 32 2 56 13 25 10 47 17 50 13 3 -3 6 3 7 14 0 10 3 14 5 7 4 -8 15 -2 34
17 15 16 31 26 34 23 3 -4 6 -1 6 5 0 6 9 14 20 17 11 4 18 10 15 15 -3 5 3
13 12 19 10 6 14 11 10 11 -4 0 3 11 17 23 14 13 23 27 19 30 -3 4 -1 7 6 7 7
0 9 4 6 10 -3 5 -1 10 4 10 6 0 11 3 10 8 -2 14 14 52 22 52 5 0 6 7 3 15 -4
8 -1 15 4 15 6 0 9 13 7 30 -2 16 0 30 6 30 5 0 9 23 8 50 -1 28 1 53 4 57 4
3 -1 12 -11 20 -9 8 -12 12 -6 9 16 -8 25 29 11 43 -8 8 -7 11 2 11 7 0 9 5 5
11 -8 13 -8 218 0 226 3 3 -2 12 -12 20 -9 8 -12 12 -6 9 16 -8 25 29 11 43
-8 8 -7 11 2 11 7 0 9 5 5 11 -8 13 -8 218 0 226 3 3 -2 12 -12 20 -9 8 -12
12 -6 9 16 -8 25 29 11 43 -8 8 -7 11 2 11 7 0 9 5 5 11 -8 13 -8 218 0 226 3
3 -2 12 -12 20 -9 8 -12 12 -6 9 16 -8 25 29 11 43 -8 8 -7 11 2 11 7 0 9 5 5
11 -8 13 -8 218 0 226 3 3 -2 12 -12 20 -9 8 -12 12 -6 9 16 -8 25 29 11 43
-8 8 -7 11 2 11 7 0 9 5 5 11 -8 13 -8 218 0 226 3 3 -2 12 -12 20 -9 8 -12
12 -6 9 16 -8 25 29 11 43 -8 8 -7 11 2 11 7 0 9 5 5 11 -8 13 -8 218 0 226 3
3 -2 12 -12 20 -9 8 -12 12 -6 9 16 -8 25 29 11 43 -8 8 -7 11 2 11 7 0 9 5 5
11 -8 13 -8 218 0 226 3 3 -2 12 -12 20 -9 8 -12 12 -6 9 16 -8 25 29 11 43
-8 8 -7 11 2 11 7 0 9 5 5 11 -8 13 -8 218 0 226 3 3 -2 12 -12 20 -9 8 -12
12 -6 9 16 -8 25 29 11 43 -8 8 -7 11 2 11 7 0 9 5 5 11 -8 13 -8 218 0 226 3
3 -2 12 -12 20 -9 8 -12 12 -6 9 16 -8 25 29 11 43 -8 8 -7 11 2 11 7 0 9 5 5
11 -8 13 -8 218 0 226 3 3 -2 12 -12 20 -9 8 -12 12 -6 9 16 -8 25 29 11 43
-8 8 -7 11 2 11 7 0 9 5 5 11 -8 13 -8 218 0 226 3 3 -2 12 -12 20 -9 8 -12
12 -6 9 16 -8 25 29 11 43 -8 8 -7 11 2 11 7 0 9 5 5 11 -4 6 -6 54 -6 105 0
52 -3 92 -7 89 -4 -2 -7 6 -6 18 1 12 -3 31 -8 42 -6 11 -10 23 -9 28 1 4 -4
7 -11 7 -8 0 -7 4 3 10 11 7 11 10 2 10 -7 0 -11 4 -8 9 3 5 -1 12 -10 15 -8
3 -12 10 -9 16 3 5 2 10 -3 10 -6 0 -13 11 -16 25 -4 14 -11 23 -16 20 -6 -3
-10 -1 -10 5 0 14 -75 90 -89 90 -6 0 -11 5 -11 10 0 6 -7 10 -16 10 -9 0 -12
5 -8 12 4 6 3 8 -4 4 -6 -3 -17 0 -25 8 -8 8 -17 13 -20 10 -3 -3 -13 -1 -24
5 -34 20 -103 39 -96 27 5 -8 3 -8 -8 0 -16 13 -89 24 -89 13 0 -10 -34 -5
-42 6 -5 6 -8 6 -8 -1 0 -7 -15 -9 -45 -4 -25 4 -45 4 -45 1 0 -10 -165 -6
-172 4 -5 7 -8 7 -8 0 0 -11 -112 -11 -129 -1 -6 4 -11 3 -11 -2 0 -4 -22 -6
-50 -2 -27 4 -50 4 -50 1 0 -8 -197 -4 -210 4 -5 3 -10 2 -10 -3 0 -4 -22 -6
-50 -2 -27 4 -50 4 -50 1 0 -10 -115 -6 -122 4 -5 6 -8 6 -8 -1 0 -7 -15 -9
-45 -4 -25 4 -45 4 -45 1 0 -10 -165 -6 -172 4 -5 6 -8 6 -8 -1 0 -12 -29 -12
-48 0 -6 4 -12 3 -12 -2 0 -4 -22 -6 -50 -2 -27 4 -50 4 -50 1 0 -8 -116 -5
-129 3 -6 4 -11 3 -11 -2 0 -4 -22 -6 -50 -2 -27 4 -50 4 -50 1 0 -8 -116 -5
-129 3 -6 4 -11 3 -11 -2 0 -4 -22 -6 -50 -2 -27 4 -50 3 -50 -1 0 -10 -34 -6
-42 6 -5 6 -8 6 -8 -1 0 -7 -15 -9 -45 -4 -25 4 -45 4 -45 1 0 -10 -165 -6
-172 4 -5 7 -8 7 -8 0 0 -11 -112 -11 -129 -1 -6 4 -11 3 -11 -2 0 -4 -22 -6
-50 -2 -27 4 -50 4 -50 1 0 -8 -197 -4 -210 4 -5 3 -10 2 -10 -3 0 -4 -22 -6
-50 -2 -27 4 -50 4 -50 1 0 -10 -115 -6 -122 4 -5 6 -8 6 -8 -1 0 -7 -15 -9
-45 -4 -25 4 -45 4 -45 1 0 -10 -165 -6 -172 4 -5 6 -8 6 -8 -1 0 -12 -29 -12
-48 0 -6 4 -12 3 -12 -2 0 -4 -22 -6 -50 -2 -27 4 -50 4 -50 1 0 -8 -116 -5
-129 3 -6 4 -11 3 -11 -2 0 -4 -22 -6 -50 -2 -27 4 -50 4 -50 1 0 -8 -116 -5
-129 3 -6 4 -11 3 -11 -2 0 -4 -22 -6 -50 -2 -27 4 -50 3 -50 -1 0 -10 -34 -6
-42 6 -5 6 -8 6 -8 -1 0 -7 -15 -9 -45 -4 -25 4 -45 4 -45 1 0 -10 -165 -6
-172 4 -5 7 -8 7 -8 0z"/>
</g>
</svg>
